{"title":"Blackmail 2018 Hindi 720p BluRay x264 ESub [MW]","magnet":"magnet:?xt=urn:btih:c3efee113e35b5596c2d92854bb8dd9f0473a5e7&dn=Blackmail+2018+Hindi+720p+BluRay+x264+ESub+%5BMW%5D&tr=udp%3A%2F%2Ftracker.leechers-paradise.org%3A6969&tr=udp%3A%2F%2Fzer0day.ch%3A1337&tr=udp%3A%2F%2Fopen.demonii.com%3A1337&tr=udp%3A%2F%2Ftracker.coppersurfer.tk%3A6969&tr=udp%3A%2F%2Fexodus.desync.com%3A6969","uploader":"MFreaky","categoryP":"video","categoryS":"hd___movies","size":"1388750420","seeders":"14","leechers":"23","description":" <a href=\"https://pichub.site/image/EqMdh\" rel=\"nofollow\" target=\"_NEW\">https://pichub.site/image/EqMdh</a> <a href=\"\nhttps://pichub.site/image/EqfF5\" rel=\"nofollow\" target=\"_NEW\">\nhttps://pichub.site/image/EqfF5</a> <a href=\"\nhttps://pichub.site/image/EqYuj\" rel=\"nofollow\" target=\"_NEW\">\nhttps://pichub.site/image/EqYuj</a> <a href=\"\nhttps://pichub.site/image/Eqa3r\" rel=\"nofollow\" target=\"_NEW\">\nhttps://pichub.site/image/Eqa3r</a> <a href=\"\nhttps://pichub.site/image/EqOIk\" rel=\"nofollow\" target=\"_NEW\">\nhttps://pichub.site/image/EqOIk</a>\r\n\r\nIMDB  <a href=\"\nhttps://www.imdb.com/title/tt6972140/\" rel=\"nofollow\" target=\"_NEW\">\nhttps://www.imdb.com/title/tt6972140/</a>\r\n\r\nVideo\r\nFormat                                   : AVC\r\nFormat/Info                              : Advanced Video Codec\r\nFormat profile                           : High@L4.1\r\nFormat settings                          : CABAC / 5 Ref Frames\r\nFormat settings, CABAC                   : Yes\r\nFormat settings, RefFrames               : 5 frames\r\nCodec ID                                 : V_MPEG4/ISO/AVC\r\nDuration                                 : 2 h 18 min\r\nBit rate                                 : 1 200 kb/s\r\nWidth                                    : 1 280 pixels\r\nHeight                                   : 532 pixels\r\nDisplay aspect ratio                     : 2.40:1\r\nFrame rate mode                          : Constant\r\nFrame rate                               : 24.000 FPS\r\nColor space                              : YUV\r\nChroma subsampling                       : 4:2:0\r\nBit depth                                : 8 bits\r\nBits/(Pixel*Frame)                       : 0.073\r\nStream size                              : 1.16 GiB (89%)\r\nWriting library                          : x264 core 155 r2901 7d0ff22\r\n\r\nAudio\r\nFormat                                   : AAC\r\nFormat/Info                              : Advanced Audio Codec\r\nFormat profile                           : LC\r\nCodec ID                                 : A_AAC-2\r\nDuration                                 : 2 h 18 min\r\nBit rate                                 : 128 kb/s\r\nChannel(s)                               : 2 channels\r\nChannel positions                        : Front: L R\r\nSampling rate                            : 48.0 kHz\r\nFrame rate                               : 46.875 FPS (1024 SPF)\r\nStream size                              : 126 MiB (10%)\r\nLanguage                                 : Hindi","last_updated":"2018-10-07T12:17:43.802Z","parsed":{"xt":"urn:btih:c3efee113e35b5596c2d92854bb8dd9f0473a5e7","dn":"Blackmail 2018 Hindi 720p BluRay x264 ESub [MW]","tr":["udp://exodus.desync.com:6969","udp://open.demonii.com:1337","udp://tracker.coppersurfer.tk:6969","udp://tracker.leechers-paradise.org:6969","udp://zer0day.ch:1337"],"infoHash":"c3efee113e35b5596c2d92854bb8dd9f0473a5e7","infoHashBuffer":{"type":"Buffer","data":[195,239,238,17,62,53,181,89,108,45,146,133,75,184,221,159,4,115,165,231]},"name":"Blackmail 2018 Hindi 720p BluRay x264 ESub [MW]","announce":["udp://exodus.desync.com:6969","udp://open.demonii.com:1337","udp://tracker.coppersurfer.tk:6969","udp://tracker.leechers-paradise.org:6969","udp://zer0day.ch:1337"],"urlList":[]}}